<svg width="20" height="20" viewBox="0 0 20 20" fill="none" xmlns="http://www.w3.org/2000/svg">
<path d="M9.7524 7.63418C10.0274 7.8374 10.4167 7.64104 10.4167 7.29906V6.3618C10.4167 6.31252 10.4594 6.27395 10.5083 6.27991C12.5698 6.53081 14.1667 8.28701 14.1667 10.4162C14.1667 12.7176 12.301 14.5832 9.99966 14.5832C7.83877 14.5832 6.06205 12.9384 5.85318 10.8324C5.83047 10.6034 5.64607 10.4163 5.41592 10.4164L4.16659 10.4166C3.9365 10.4166 3.74856 10.6037 3.76367 10.8333C3.97809 14.0908 6.68824 16.6666 10 16.6666C13.4518 16.6666 16.25 13.8684 16.25 10.4166C16.25 7.1314 13.7153 4.43816 10.4948 4.18595C10.451 4.18252 10.4167 4.14619 10.4167 4.10229V3.11761C10.4167 2.77563 10.0274 2.57927 9.75238 2.78251L6.92284 4.87333C6.69743 5.03988 6.69744 5.377 6.92285 5.54355L9.7524 7.63418Z" fill="#F5F5F5"/>
</svg>
